<svg width="358" height="235" viewBox="0 0 358 235" fill="none" xmlns="http://www.w3.org/2000/svg">
<rect width="358" height="235" fill="#D9D9D9"/>
<path d="M194.89 126.479L185.963 117.992C185.287 117.384 184.505 117.049 183.694 117.049C182.867 117.049 182.131 117.338 181.439 117.962L174.646 124.107L171.866 121.567C171.235 120.989 170.543 120.7 169.837 120.7C169.161 120.7 168.53 120.973 167.898 121.551L162.172 126.783C162.262 129.536 163.375 130.935 165.614 130.935H190.802C193.523 130.935 194.89 129.399 194.89 126.479ZM172.197 118.144C174.135 118.144 175.728 116.532 175.728 114.555C175.728 112.593 174.135 110.966 172.197 110.966C170.243 110.966 168.65 112.593 168.65 114.555C168.65 116.532 170.243 118.144 172.197 118.144ZM165.719 132H191.719C194.875 132 196.438 130.434 196.438 127.3V108.715C196.438 105.582 194.875 104 191.719 104H165.719C162.578 104 161 105.582 161 108.715V127.3C161 130.434 162.578 132 165.719 132ZM165.749 129.551C164.246 129.551 163.42 128.745 163.42 127.163V108.852C163.42 107.27 164.246 106.449 165.749 106.449H191.689C193.177 106.449 194.019 107.27 194.019 108.852V127.163C194.019 128.745 193.177 129.551 191.689 129.551H165.749Z" fill="black" fill-opacity="0.85"/>
</svg>
