<svg width="67" height="67" viewBox="0 0 67 67" fill="none" xmlns="http://www.w3.org/2000/svg">
<path d="M33.5 0C26.8743 0 20.3975 1.96474 14.8884 5.64577C9.37936 9.32679 5.08559 14.5588 2.55005 20.6801C0.014515 26.8014 -0.648897 33.5372 0.643708 40.0355C1.93631 46.5339 5.12688 52.503 9.81194 57.1881C14.497 61.8731 20.4661 65.0637 26.9645 66.3563C33.4628 67.6489 40.1986 66.9855 46.3199 64.45C52.4412 61.9144 57.6732 57.6206 61.3542 52.1116C65.0353 46.6025 67 40.1257 67 33.5C67 24.6152 63.4705 16.0944 57.1881 9.81192C50.9056 3.52945 42.3848 0 33.5 0ZM41.875 48.575L30.15 36.85V13.4H36.85V33.5L46.9 43.55L41.875 48.575Z" fill="black"/>
</svg>
