<svg width="24" height="24" viewBox="0 0 24 24" fill="none" xmlns="http://www.w3.org/2000/svg">
<g id="Group">
<path id="Vector" d="M6.53458 22H17.4654C19.4207 22 20.5023 21.0553 20.5023 19.2518V13.3931H20.5751C21.4904 13.2118 22 12.5343 22 11.561V9.05151C22 7.88739 21.2927 7.15266 20.0239 7.15266H17.9231C18.4743 6.64694 18.7967 5.95991 18.7967 5.16793C18.7967 3.31679 17.2054 2 15.1877 2C13.7316 2 12.5252 2.73473 11.9948 4.01336C11.4644 2.73473 10.2683 2 8.80187 2C6.79459 2 5.19293 3.31679 5.19293 5.16793C5.19293 5.95991 5.51534 6.64694 6.07696 7.15266H3.97608C2.75923 7.15266 2 7.88739 2 9.05151V11.561C2 12.5343 2.49922 13.2118 3.41445 13.3931H3.48725V19.2518C3.48725 21.0553 4.5689 22 6.53458 22ZM11.0692 20.5687H6.51378C5.65054 20.5687 5.16173 20.1202 5.16173 19.3282V13.4599H11.0692V20.5687ZM12.9204 20.5687V13.4599H18.8279V19.3282C18.8279 20.1202 18.3391 20.5687 17.4758 20.5687H12.9204ZM11.0692 12.0191H4.4025C3.88248 12.0191 3.67447 11.8187 3.67447 11.3416V9.26143C3.67447 8.78434 3.88248 8.5935 4.4025 8.5935H11.0692V12.0191ZM12.9204 12.0191V8.5935H19.6079C20.1279 8.5935 20.3255 8.78434 20.3255 9.26143V11.3416C20.3255 11.8187 20.1279 12.0191 19.6079 12.0191H12.9204ZM11.142 7.15266H9.5195C7.88663 7.15266 6.9298 6.30343 6.9298 5.25381C6.9298 4.20419 7.76183 3.59351 8.90588 3.59351C10.1435 3.59351 11.142 4.45229 11.142 5.8645V7.15266ZM12.8476 7.15266V5.8645C12.8476 4.45229 13.846 3.59351 15.0838 3.59351C16.2278 3.59351 17.0598 4.20419 17.0598 5.25381C17.0598 6.30343 16.1134 7.15266 14.4701 7.15266H12.8476Z" fill="white" fill-opacity="0.85"/>
</g>
</svg>
