<svg width="24" height="24" viewBox="0 0 24 24" fill="none" xmlns="http://www.w3.org/2000/svg">
<g id="Group">
<path id="Vector" d="M5.20341 17.5164H7.49702C8.04937 17.5164 8.41448 17.1183 8.41448 16.5609V14.7195C8.41448 14.1522 8.04937 13.764 7.49702 13.764H5.20341C4.65106 13.764 4.28596 14.1522 4.28596 14.7195V16.5609C4.28596 17.1183 4.65106 17.5164 5.20341 17.5164ZM1.7583 10.2207H22.2511V7.96134H1.7583V10.2207ZM3.93958 21H20.0604C22.0264 21 23 19.9748 23 17.9245V7.08547C23 5.03513 22.0264 4 20.0604 4H3.93958C1.98298 4 1 5.03513 1 7.08547V17.9245C1 19.9748 1.98298 21 3.93958 21ZM3.9583 19.3975C3.02213 19.3975 2.50724 18.87 2.50724 17.8349V7.17505C2.50724 6.13993 3.02213 5.60245 3.9583 5.60245H20.0417C20.9592 5.60245 21.4928 6.13993 21.4928 7.17505V17.8349C21.4928 18.87 20.9592 19.3975 20.0417 19.3975H3.9583Z" fill="white" fill-opacity="0.85"/>
</g>
</svg>
