<svg width="24" height="24" viewBox="0 0 24 24" fill="none" xmlns="http://www.w3.org/2000/svg">
<g id="Group 72">
<path id="Vector" d="M5.94876 5.99875H5.60876L9.62876 1.97875C10.9388 0.67375 13.0588 0.67375 14.3688 1.97875L18.3888 5.99875H18.0488C17.2488 5.99875 16.4938 6.30875 15.9288 6.87875L12.5288 10.2638C12.2338 10.5588 11.7638 10.5588 11.4688 10.2638L8.06876 6.87875C7.50376 6.30875 6.74876 5.99875 5.94876 5.99875Z" fill="#4DB6AC"/>
<path id="Vector_2" d="M18.0488 17.9987H18.3888L14.3688 22.0187C13.0588 23.3237 10.9388 23.3237 9.62876 22.0187L5.60876 17.9987H5.94876C6.74876 17.9987 7.50376 17.6887 8.06876 17.1187L11.4688 13.7337C11.7638 13.4387 12.2338 13.4387 12.5288 13.7337L15.9288 17.1187C16.4938 17.6887 17.2488 17.9987 18.0488 17.9987Z" fill="#4DB6AC"/>
<path id="Vector_3" d="M22.0188 14.3688L19.3888 16.9988H18.0487C17.5138 16.9988 17.0138 16.7888 16.6337 16.4138L13.2337 13.0238C12.5537 12.3438 11.4438 12.3438 10.7638 13.0238L7.36375 16.4138C6.98375 16.7888 6.48375 16.9988 5.94875 16.9988H4.60875L1.97875 14.3688C0.67375 13.0588 0.67375 10.9388 1.97875 9.62878L4.60875 6.99878H5.94875C6.48375 6.99878 6.98375 7.20878 7.36375 7.58378L10.7638 10.9738C11.1038 11.3138 11.5538 11.4838 11.9987 11.4838C12.4437 11.4838 12.8937 11.3138 13.2337 10.9738L16.6337 7.58378C17.0138 7.20878 17.5138 6.99878 18.0487 6.99878H19.3888L22.0188 9.62878C23.3238 10.9388 23.3238 13.0588 22.0188 14.3688Z" fill="#4DB6AC"/>
</g>
</svg>
