<svg width="16" height="16" viewBox="0 0 16 16" fill="none" xmlns="http://www.w3.org/2000/svg">
<g clip-path="url(#clip0_315_895)">
<path d="M3.89804 8.84272H7.99215C8.298 8.84272 8.54119 8.6076 8.54119 8.29397V3.0103C8.54119 2.70456 8.298 2.46938 7.99215 2.46938C7.68626 2.46938 7.45097 2.70456 7.45097 3.0103V7.75308H3.89804C3.58431 7.75308 3.34901 7.98826 3.34901 8.29397C3.34901 8.6076 3.58431 8.84272 3.89804 8.84272ZM7.99999 15.9922C12.3765 15.9922 16 12.3626 16 7.9961C16 3.62176 12.3686 0 7.99215 0C3.62353 0 0 3.62176 0 7.9961C0 12.3626 3.63136 15.9922 7.99999 15.9922ZM7.99999 14.6595C4.29803 14.6595 1.34117 11.6962 1.34117 7.9961C1.34117 4.29594 4.29019 1.33269 7.99215 1.33269C11.6941 1.33269 14.6666 4.29594 14.6666 7.9961C14.6666 11.6962 11.7019 14.6595 7.99999 14.6595Z" fill="white" fill-opacity="0.85"/>
</g>
<defs>
<clipPath id="clip0_315_895">
<rect width="16" height="16" fill="white"/>
</clipPath>
</defs>
</svg>
