<svg width="11" height="11" viewBox="0 0 11 11" fill="none" xmlns="http://www.w3.org/2000/svg">
<path d="M0.171569 10.3491C0.403631 10.5746 0.788189 10.5746 1.01362 10.3491L5.25704 6.10573L9.50043 10.3491C9.72591 10.5746 10.1171 10.5812 10.3425 10.3491C10.5679 10.1171 10.5679 9.73916 10.3425 9.51375L6.09909 5.26368L10.3425 1.02027C10.5679 0.794835 10.5746 0.410274 10.3425 0.184842C10.1105 -0.0472195 9.72591 -0.0472195 9.50043 0.184842L5.25704 4.42826L1.01362 0.184842C0.788189 -0.0472195 0.397 -0.0538499 0.171569 0.184842C-0.0538625 0.416904 -0.0538625 0.794835 0.171569 1.02027L4.41499 5.26368L0.171569 9.51375C-0.0538625 9.73916 -0.0604929 10.1237 0.171569 10.3491Z" fill="black" fill-opacity="0.85"/>
</svg>
