<svg width="35" height="35" viewBox="0 0 35 35" fill="none" xmlns="http://www.w3.org/2000/svg">
<path d="M24.8603 9H9.13969C8.91345 9.00285 8.69311 9.06511 8.50599 9.17908C8.31888 9.29305 8.17322 9.4537 8.08707 9.64113C8.00092 9.82855 7.97806 10.0345 8.02134 10.2335C8.06462 10.4324 8.17213 10.6156 8.33054 10.7603L14.457 16.9733L14.6881 17.6981V22.6685C14.6881 22.8756 14.6881 23.0827 14.9193 23.0827L18.3871 25.4643C18.7339 25.6714 19.3119 25.4643 19.3119 25.0501V17.6981C19.3119 17.3875 19.3119 17.1804 19.543 16.9733L25.6695 10.7603C25.8279 10.6156 25.9354 10.4324 25.9787 10.2335C26.0219 10.0345 25.9991 9.82855 25.9129 9.64113C25.8268 9.4537 25.6811 9.29305 25.494 9.17908C25.3069 9.06511 25.0866 9.00285 24.8603 9Z" stroke="white" stroke-width="2" stroke-linecap="round"/>
</svg>
