<svg width="67" height="67" viewBox="0 0 67 67" fill="none" xmlns="http://www.w3.org/2000/svg">
<path d="M60.1828 21.8453C60.2598 21.2624 60.3 20.6796 60.3 20.1C60.3 12.1304 53.1209 5.7352 45.1546 6.81725C42.8331 2.6867 38.4111 0 33.5 0C28.5889 0 24.1669 2.6867 21.8453 6.81725C13.8623 5.7352 6.7 12.1304 6.7 20.1C6.7 20.6796 6.7402 21.2624 6.81725 21.8453C2.6867 24.1702 0 28.5922 0 33.5C0 38.4077 2.6867 42.8298 6.81725 45.1546C6.73996 45.7332 6.7008 46.3163 6.7 46.9C6.7 54.8696 13.8623 61.248 21.8453 60.1828C24.1669 64.3133 28.5889 67 33.5 67C38.4111 67 42.8331 64.3133 45.1546 60.1828C53.1209 61.248 60.3 54.8696 60.3 46.9C60.3 46.3204 60.2598 45.7375 60.1828 45.1546C64.3133 42.8298 67 38.4077 67 33.5C67 28.5922 64.3133 24.1702 60.1828 21.8453ZM29.9992 48.2936L17.7148 35.8517L22.4852 31.1483L30.0461 38.8064L44.5416 24.4215L49.2584 29.1785L29.9992 48.2936Z" fill="black"/>
</svg>
