<svg width="24" height="24" viewBox="0 0 24 24" fill="none" xmlns="http://www.w3.org/2000/svg">
<g id="Group 69">
<g id="Group 70">
<path id="Vector" d="M20.1638 8.02759C19.23 12.1726 16.3475 14.3601 11.8038 14.3601H10.2925L9.24128 21.0326H7.97503L7.90878 21.4626C7.89852 21.5292 7.90276 21.5971 7.92121 21.6619C7.93966 21.7267 7.97189 21.7867 8.01569 21.8379C8.0595 21.889 8.11383 21.9301 8.17499 21.9583C8.23615 21.9866 8.30268 22.0012 8.37003 22.0013H11.605C11.7904 22.0011 11.9696 21.9349 12.1106 21.8147C12.2517 21.6945 12.3454 21.528 12.375 21.3451L12.4063 21.1813L13.0163 17.3176L13.055 17.1063C13.084 16.9231 13.1775 16.7562 13.3187 16.6358C13.4599 16.5155 13.6395 16.4496 13.825 16.4501H14.305C17.4375 16.4501 19.8913 15.1763 20.61 11.4963C20.88 10.0976 20.7763 8.91009 20.1638 8.02759Z" fill="white"/>
<path id="Vector_2" d="M18.4329 3.5075C17.5066 2.4525 15.8316 2 13.6904 2H7.47536C7.03786 2 6.66286 2.31625 6.59661 2.75L4.00661 19.1638C3.9945 19.24 3.99907 19.318 4.02001 19.3923C4.04095 19.4666 4.07777 19.5355 4.12792 19.5942C4.17807 19.6529 4.24035 19.7 4.31048 19.7323C4.38061 19.7646 4.4569 19.7813 4.53411 19.7813H8.37411L9.33911 13.6675L9.30786 13.8588C9.37411 13.425 9.74536 13.1088 10.1829 13.1088H12.0066C15.5891 13.1088 18.3929 11.6563 19.2141 7.445C19.2379 7.32 19.2604 7.19875 19.2766 7.08125C19.5191 5.52625 19.2766 4.46375 18.4329 3.5075Z" fill="white"/>
</g>
</g>
</svg>
