<svg width="21" height="21" viewBox="0 0 21 21" fill="none" xmlns="http://www.w3.org/2000/svg">
<path d="M2.94506 21H18.055C20.0505 21 21 20.4429 21 19.2175C21 16.2986 17.0212 12.0763 10.506 12.0763C3.97883 12.0763 0 16.2986 0 19.2175C0 20.4429 0.94963 21 2.94506 21ZM2.38008 19.3178C2.06755 19.3178 1.93533 19.2397 1.93533 19.0059C1.93533 17.1788 4.98856 13.7585 10.506 13.7585C16.0115 13.7585 19.0648 17.1788 19.0648 19.0059C19.0648 19.2397 18.9445 19.3178 18.632 19.3178H2.38008ZM10.506 10.6949C13.367 10.6949 15.6989 8.33314 15.6989 5.45887C15.6989 2.60688 13.3789 0.367615 10.506 0.367615C7.65714 0.367615 5.31313 2.65144 5.31313 5.48115C5.32514 8.34427 7.64513 10.6949 10.506 10.6949ZM10.506 9.01271C8.75103 9.01271 7.24844 7.45302 7.24844 5.48115C7.24844 3.54268 8.72698 2.04985 10.506 2.04985C12.2971 2.04985 13.7636 3.5204 13.7636 5.45887C13.7636 7.43074 12.2731 9.01271 10.506 9.01271Z" fill="white" fill-opacity="0.85"/>
</svg>
