<svg width="14" height="19" viewBox="0 0 14 19" fill="none" xmlns="http://www.w3.org/2000/svg">
<path d="M6.85118 4.33368C6.3525 4.33368 5.86503 4.48155 5.45039 4.7586C5.03576 5.03565 4.7126 5.42943 4.52176 5.89015C4.33093 6.35086 4.281 6.85782 4.37828 7.34691C4.47557 7.836 4.7157 8.28526 5.06832 8.63788C5.42093 8.99049 5.87019 9.23063 6.35929 9.32792C6.84838 9.4252 7.35534 9.37527 7.81605 9.18444C8.27677 8.9936 8.67055 8.67044 8.9476 8.2558C9.22464 7.84117 9.37252 7.35369 9.37252 6.85502C9.37176 6.18655 9.10587 5.54568 8.63319 5.073C8.16052 4.60033 7.51964 4.33444 6.85118 4.33368ZM6.85118 8.11569C6.60184 8.11569 6.3581 8.04175 6.15079 7.90323C5.94347 7.76471 5.78189 7.56782 5.68647 7.33746C5.59105 7.1071 5.56609 6.85362 5.61473 6.60908C5.66337 6.36453 5.78344 6.1399 5.95975 5.96359C6.13606 5.78728 6.36069 5.66722 6.60523 5.61857C6.84978 5.56993 7.10326 5.5949 7.33361 5.69031C7.56397 5.78573 7.76086 5.94731 7.89939 6.15463C8.03791 6.36195 8.11185 6.60568 8.11185 6.85502C8.11146 7.18925 7.97852 7.50969 7.74218 7.74602C7.50584 7.98236 7.18541 8.11531 6.85118 8.11569Z" fill="white"/>
<path d="M11.6962 2.00624C10.4983 0.808624 8.89919 0.0971891 7.20757 0.00924684C5.51595 -0.0786954 3.85171 0.46309 2.53606 1.53004C1.22041 2.59698 0.346606 4.11346 0.0833025 5.78677C-0.180001 7.46009 0.185858 9.17163 1.11027 10.5911L5.87352 17.9035C5.97952 18.0662 6.12445 18.1999 6.29518 18.2924C6.46591 18.3849 6.65703 18.4334 6.85123 18.4334C7.04542 18.4334 7.23655 18.3849 7.40727 18.2924C7.578 18.1999 7.72294 18.0662 7.82894 17.9035L12.5923 10.5911C13.4501 9.27433 13.8292 7.70278 13.666 6.1398C13.5028 4.57683 12.8074 3.11744 11.6962 2.00624ZM11.5361 9.90293L6.85125 17.0947L2.1664 9.90293C0.732383 7.70152 1.03995 4.75549 2.8977 2.89766C3.41688 2.37846 4.03325 1.96661 4.7116 1.68562C5.38995 1.40464 6.117 1.26001 6.85125 1.26001C7.58549 1.26001 8.31254 1.40464 8.99089 1.68562C9.66924 1.96661 10.2856 2.37846 10.8048 2.89766C12.6625 4.75549 12.9701 7.70152 11.5361 9.90293Z" fill="white"/>
</svg>
