<svg width="29" height="29" viewBox="0 0 29 29" fill="none" xmlns="http://www.w3.org/2000/svg">
<g id="Group 21">
<path id="Vector" d="M21.1325 7.8705C20.6311 7.36896 20.3376 6.69663 20.3105 5.98798C20.2835 5.27932 20.525 4.58658 20.9867 4.04829C21.0249 4.00352 21.0447 3.94597 21.0422 3.88718C21.0398 3.82839 21.0152 3.7727 20.9734 3.73128L18.3138 1.06863C18.2698 1.02469 18.2102 1 18.148 1C18.0859 1 18.0263 1.02469 17.9823 1.06863L13.743 5.30789C13.5866 5.46427 13.4688 5.65493 13.3989 5.86477C13.3293 6.0751 13.2116 6.2663 13.0552 6.42322C12.8988 6.58014 12.708 6.69846 12.4979 6.76879C12.2879 6.83876 12.0971 6.95657 11.9404 7.11293L1.06863 17.9823C1.02469 18.0263 1 18.0859 1 18.148C1 18.2102 1.02469 18.2698 1.06863 18.3138L3.72826 20.9734C3.76969 21.0152 3.82538 21.0398 3.88417 21.0422C3.94296 21.0447 4.00051 21.0249 4.04527 20.9867C4.58345 20.5245 5.27635 20.2826 5.98524 20.3095C6.69414 20.3364 7.36673 20.63 7.86836 21.1316C8.36998 21.6333 8.66363 22.3059 8.69051 23.0148C8.7174 23.7237 8.47553 24.4165 8.01333 24.9547C7.97515 24.9995 7.95529 25.057 7.95775 25.1158C7.96021 25.1746 7.9848 25.2303 8.02659 25.2717L10.6862 27.9314C10.7302 27.9753 10.7898 28 10.852 28C10.9141 28 10.9737 27.9753 11.0177 27.9314L21.8901 17.0596C22.0464 16.9029 22.1642 16.7121 22.2342 16.5021C22.3038 16.2918 22.4215 16.1006 22.5779 15.9437C22.7343 15.7867 22.9251 15.6684 23.1352 15.5981C23.3451 15.5282 23.5357 15.4104 23.6921 15.254L27.9314 11.0147C27.9753 10.9707 28 10.9111 28 10.849C28 10.7868 27.9753 10.7272 27.9314 10.6832L25.2717 8.02358C25.2303 7.98179 25.1746 7.9572 25.1158 7.95474C25.057 7.95228 24.9995 7.97213 24.9547 8.01032C24.4172 8.4728 23.7249 8.71533 23.0162 8.6894C22.3076 8.66348 21.6348 8.37102 21.1325 7.8705Z" stroke="#737373" stroke-width="1.5" stroke-miterlimit="10"/>
<path id="Vector_2" d="M14.2422 9.08309L13.4683 8.30918M16.3056 11.1465L15.7895 10.6309M18.3691 13.2105L17.8534 12.6944M20.6908 15.5317L19.9169 14.7578" stroke="#737373" stroke-width="1.5" stroke-miterlimit="10" stroke-linecap="round"/>
</g>
</svg>
