<svg width="24" height="24" viewBox="0 0 24 24" fill="none" xmlns="http://www.w3.org/2000/svg">
<g id="Group 71">
<path id="Vector" d="M5.65435 9.0314C5.41997 9.30158 5.0449 9.51477 4.66986 9.48428C4.62298 9.11896 4.80657 8.73073 5.02146 8.49094C5.25583 8.21314 5.66607 8.01522 5.99814 8C6.0372 8.38058 5.88482 8.75356 5.65435 9.0314ZM5.99427 9.55663C5.45122 9.52618 4.98634 9.85726 4.72849 9.85726C4.46677 9.85726 4.07216 9.57185 3.64243 9.57946C3.0838 9.58707 2.56419 9.89531 2.27899 10.3863C1.69298 11.3682 2.12665 12.8221 2.69309 13.6213C2.97048 14.0171 3.30255 14.451 3.74009 14.4358C4.15423 14.4205 4.31829 14.1732 4.81837 14.1732C5.32232 14.1732 5.46689 14.4358 5.90443 14.4282C6.35759 14.4205 6.64279 14.0324 6.92017 13.6365C7.23658 13.1875 7.36552 12.7498 7.37334 12.7269C7.36552 12.7193 6.49826 12.3958 6.49044 11.4215C6.48263 10.607 7.17412 10.2189 7.20537 10.196C6.81466 9.63273 6.20525 9.57185 5.99427 9.55663ZM9.13139 8.45289V14.3863H10.0768V12.3578H11.3855C12.581 12.3578 13.4209 11.5586 13.4209 10.4016C13.4209 9.24458 12.5966 8.45293 11.4168 8.45293L9.13139 8.45289ZM10.0768 9.22932H11.1667C11.9872 9.22932 12.456 9.65557 12.456 10.4053C12.456 11.1551 11.9872 11.5852 11.1628 11.5852H10.0768V9.22932ZM15.1476 14.432C15.7415 14.432 16.2923 14.1389 16.5423 13.6746H16.5619V14.3863H17.437V11.4329C17.437 10.5766 16.7338 10.0247 15.6516 10.0247C14.6476 10.0247 13.9053 10.5842 13.878 11.353H14.7296C14.7999 10.9876 15.1476 10.7479 15.6242 10.7479C16.2025 10.7479 16.5267 11.0105 16.5267 11.4938V11.8211L15.3469 11.8896C14.2491 11.9543 13.6553 12.392 13.6553 13.1532C13.6553 13.922 14.2686 14.432 15.1476 14.432ZM15.4016 13.7279C14.8976 13.7279 14.5773 13.4919 14.5773 13.1303C14.5773 12.7574 14.8859 12.5405 15.4758 12.5062L16.5267 12.4415V12.7764C16.5267 13.3321 16.0423 13.7279 15.4016 13.7279ZM18.6051 16C19.5271 16 19.9607 15.6575 20.3397 14.6185L22 10.0818H21.0389L19.9255 13.587H19.906L18.7926 10.0818H17.8042L19.4059 14.4015L19.32 14.6641C19.1755 15.1094 18.941 15.2807 18.523 15.2807C18.4488 15.2807 18.3043 15.2731 18.2457 15.2655V15.9772C18.3003 15.9924 18.5348 16 18.6051 16Z" fill="white"/>
</g>
</svg>
