<svg width="26" height="26" viewBox="0 0 26 26" fill="none" xmlns="http://www.w3.org/2000/svg">
<rect width="26" height="26" rx="5" fill="#D9D9D9"/>
<path fill-rule="evenodd" clip-rule="evenodd" d="M18.8182 7.46627C19.2421 7.74347 19.3609 8.31107 19.0837 8.73494L12.8504 18.2683C12.7777 18.3793 12.6819 18.4733 12.5694 18.5437C12.4568 18.6141 12.3304 18.6592 12.1987 18.676C12.0671 18.6927 11.9334 18.6807 11.8068 18.6407C11.6803 18.6006 11.5639 18.5336 11.4658 18.4443L7.4325 14.7776C7.25259 14.614 7.14503 14.3857 7.13348 14.1428C7.12193 13.9 7.20733 13.6624 7.3709 13.4825C7.53447 13.3026 7.7628 13.1951 8.00568 13.1835C8.24855 13.172 8.48606 13.2574 8.66597 13.4209L11.9044 16.3645L17.5496 7.73173C17.6826 7.52833 17.891 7.3861 18.1289 7.33632C18.3668 7.28653 18.6148 7.33328 18.8182 7.46627Z" fill="black"/>
</svg>
