<svg width="35" height="35" viewBox="0 0 35 35" fill="none" xmlns="http://www.w3.org/2000/svg">
<rect width="35" height="35" rx="17.5" fill="#222222"/>
<path fill-rule="evenodd" clip-rule="evenodd" d="M28.2975 17.7586C28.2975 16.952 28.2251 16.1764 28.0907 15.4319H17.3775V19.8319H23.4993C23.2356 21.2538 22.4342 22.4585 21.2295 23.2651V26.1192H24.9057C27.0566 24.1389 28.2975 21.2228 28.2975 17.7586Z" fill="white"/>
<path fill-rule="evenodd" clip-rule="evenodd" d="M17.3775 28.8749C20.4488 28.8749 23.0236 27.8563 24.9057 26.119L21.2295 23.2649C20.2109 23.9474 18.908 24.3507 17.3775 24.3507C14.4148 24.3507 11.9072 22.3498 11.0127 19.6611H7.2124V22.6083C9.0841 26.3258 12.9309 28.8749 17.3775 28.8749Z" fill="white"/>
<path fill-rule="evenodd" clip-rule="evenodd" d="M11.0127 19.6613C10.7852 18.9788 10.6559 18.2497 10.6559 17.5C10.6559 16.7503 10.7852 16.0213 11.0127 15.3388V12.3916H7.21237C6.44198 13.9272 6.00249 15.6645 6.00249 17.5C6.00249 19.3355 6.44198 21.0728 7.21237 22.6084L11.0127 19.6613Z" fill="white"/>
<path fill-rule="evenodd" clip-rule="evenodd" d="M17.3775 10.6491C19.0476 10.6491 20.547 11.2231 21.7259 12.3502L24.9884 9.08767C23.0185 7.25216 20.4436 6.125 17.3775 6.125C12.9309 6.125 9.0841 8.67403 7.2124 12.3916L11.0127 15.3387C11.9072 12.6501 14.4148 10.6491 17.3775 10.6491Z" fill="white"/>
</svg>
