<svg width="26" height="23" viewBox="0 0 26 23" fill="none" xmlns="http://www.w3.org/2000/svg">
<path d="M9.85758 21.1209H16.1425V13.4223C16.1425 12.9359 15.8157 12.6186 15.3147 12.6186H10.6963C10.1844 12.6186 9.85758 12.9359 9.85758 13.4223V21.1209ZM5.59867 22.2102H20.336C21.8827 22.2102 22.7868 21.3535 22.7868 19.8731V8.18771L21.0331 7.02446V19.4396C21.0331 20.1269 20.6519 20.5076 19.9657 20.5076H5.96901C5.2719 20.5076 4.89067 20.1269 4.89067 19.4396V7.03502L3.137 8.18771V19.8731C3.137 21.3535 4.04107 22.2102 5.59867 22.2102ZM0 10.4402C0 10.8738 0.348555 11.2862 0.936743 11.2862C1.24173 11.2862 1.49225 11.1276 1.72099 10.9478L12.6243 2.06477C12.8639 1.85328 13.158 1.85328 13.3976 2.06477L24.3008 10.9478C24.5187 11.1276 24.7692 11.2862 25.0742 11.2862C25.5862 11.2862 26 10.9795 26 10.4719C26 10.1547 25.8911 9.94315 25.6624 9.75281L14.3235 0.49967C13.5174 -0.166557 12.5153 -0.166557 11.6984 0.49967L0.348555 9.75281C0.108924 9.94315 0 10.1969 0 10.4402ZM20.0528 5.67085L22.7868 7.91275V3.0271C22.7868 2.56179 22.4818 2.2657 22.0026 2.2657H20.837C20.3687 2.2657 20.0528 2.56179 20.0528 3.0271V5.67085Z" fill="white" fill-opacity="0.85"/>
</svg>
